<svg width="433" height="57" viewBox="0 0 433 57" fill="none" xmlns="http://www.w3.org/2000/svg">
<g clip-path="url(#clip0)">
<path d="M113.845 26.2972H66.778C67.2062 22.6549 68.6892 19.2173 71.0446 16.4074C73.3999 13.5975 76.5249 11.5378 80.0348 10.4818C83.5448 9.42586 87.2868 9.41968 90.8003 10.464C94.3137 11.5083 97.4455 13.5575 99.8101 16.3596L106.657 9.47092C102.934 5.31441 98.073 2.34333 92.6774 0.926322C87.2818 -0.490683 81.589 -0.291217 76.3057 1.49999C71.0224 3.29119 66.381 6.59528 62.9575 11.0022C59.534 15.4092 57.4791 20.725 57.0479 26.29H56.8881C56.4568 20.725 54.4019 15.4092 50.9784 11.0022C47.5549 6.59528 42.9136 3.29119 37.6303 1.49999C32.3469 -0.291217 26.6542 -0.490683 21.2586 0.926322C15.8629 2.34333 11.0019 5.31441 7.27873 9.47092L14.1258 16.3596C16.4905 13.5575 19.6222 11.5083 23.1357 10.464C26.6492 9.41968 30.3911 9.42586 33.9011 10.4818C37.4111 11.5378 40.536 13.5975 42.8914 16.4074C45.2467 19.2173 46.7297 22.6549 47.1579 26.2972H0.090576C0.0358799 27.024 0.00798816 27.7581 0.00702858 28.4993C0.00834716 35.4889 2.57635 42.2344 7.22286 47.4536C11.8694 52.6727 18.2705 56.0016 25.2094 56.8074C32.1482 57.6133 39.1411 55.8399 44.8588 51.8245C50.5765 47.809 54.6203 41.8313 56.2216 35.0278H57.7215C59.3177 41.8362 63.3598 47.8198 69.0787 51.8398C74.7976 55.8599 81.7939 57.6357 88.7363 56.8294C95.6788 56.0231 102.083 52.691 106.729 47.4672C111.376 42.2434 113.941 35.4925 113.936 28.4993C113.931 27.759 113.901 27.025 113.845 26.2972ZM28.4835 47.3087C24.6353 47.3088 20.8797 46.1275 17.7237 43.9241C14.5678 41.7207 12.1634 38.6015 10.8354 34.9875H46.1317C44.8034 38.6017 42.3988 41.7209 39.2426 43.9243C36.0864 46.1276 32.3306 47.3089 28.4821 47.3087H28.4835ZM85.4481 47.3087C81.5997 47.3089 77.8438 46.1276 74.6875 43.9243C71.5313 41.7209 69.1268 38.6017 67.7985 34.9875H103.092C101.764 38.6011 99.3602 41.72 96.2048 43.9233C93.0494 46.1266 89.2944 47.3083 85.4466 47.3087H85.4481Z" fill="white"/>
<path d="M232.49 43.7686L222.826 34.0168V43.7686H218.378V13.181H222.826V31.2271L231.583 22.505H237.21L227.151 32.5693L238.191 43.7773L232.49 43.7686Z" fill="white"/>
<path d="M299.776 43.8147V22.5512H304.224V26.2352C304.594 25.1125 305.327 24.1448 306.307 23.4844C307.256 22.8036 308.394 22.4361 309.562 22.4331C310.146 22.4219 310.729 22.476 311.301 22.5944L310.294 26.9151C309.9 26.8057 309.49 26.7657 309.082 26.797C308.422 26.7938 307.771 26.9395 307.176 27.2233C306.581 27.5071 306.057 27.9216 305.645 28.4359C304.634 29.7297 304.131 31.3481 304.23 32.987V43.8104L299.776 43.8147Z" fill="white"/>
<path d="M241.983 42.304C240.575 41.368 239.493 40.0178 238.885 38.4398L242.727 36.7533C243.138 37.7284 243.827 38.5609 244.707 39.147C245.579 39.7025 246.595 39.989 247.628 39.9708C248.562 40.0009 249.49 39.8058 250.332 39.4019C250.664 39.2584 250.945 39.0195 251.141 38.7156C251.336 38.4118 251.437 38.0566 251.431 37.6952C251.439 37.3498 251.357 37.0083 251.191 36.7049C251.026 36.4015 250.784 36.147 250.489 35.9669C249.59 35.4414 248.609 35.07 247.588 34.868L245.195 34.279C243.715 33.9476 242.348 33.2301 241.234 32.1993C240.722 31.7182 240.317 31.1337 240.047 30.4845C239.776 29.8353 239.647 29.136 239.667 28.4331C239.648 27.3113 240.015 26.2172 240.706 25.3337C241.443 24.4118 242.41 23.7013 243.51 23.2742C244.731 22.7838 246.037 22.5391 247.353 22.5541C249.054 22.518 250.737 22.9019 252.254 23.6717C253.616 24.3649 254.697 25.5083 255.313 26.9079L251.549 28.5555C251.17 27.7951 250.57 27.167 249.829 26.7537C249.087 26.3404 248.237 26.1612 247.392 26.2397C246.543 26.2102 245.702 26.4139 244.961 26.8287C244.673 26.9693 244.429 27.1865 244.256 27.4565C244.083 27.7266 243.988 28.039 243.981 28.3597C243.976 28.647 244.041 28.931 244.171 29.1873C244.301 29.4435 244.492 29.6642 244.726 29.8301C245.391 30.286 246.136 30.612 246.923 30.7908L249.863 31.5368C251.522 31.8767 253.059 32.6555 254.314 33.7922C254.805 34.2743 255.193 34.8522 255.453 35.4901C255.712 36.1279 255.838 36.8122 255.824 37.5008C255.843 38.6943 255.464 39.8601 254.746 40.8133C253.977 41.8061 252.954 42.572 251.785 43.0298C250.466 43.5652 249.053 43.8321 247.629 43.8148C245.637 43.9002 243.666 43.3729 241.983 42.304Z" fill="white"/>
<path d="M285.975 22.5728C283.876 22.5728 281.824 23.1956 280.079 24.3626C278.333 25.5296 276.973 27.1883 276.17 29.1289C275.366 31.0695 275.156 33.2048 275.566 35.265C275.975 37.3251 276.986 39.2174 278.47 40.7027C279.955 42.1879 281.846 43.1994 283.905 43.6092C285.964 44.019 288.098 43.8087 290.037 43.0049C291.977 42.2011 293.634 40.8398 294.801 39.0933C295.967 37.3468 296.589 35.2935 296.589 33.193C296.589 30.3764 295.471 27.675 293.481 25.6833C291.49 23.6917 288.79 22.5728 285.975 22.5728ZM285.975 39.1815C284.772 39.1815 283.595 38.8244 282.595 38.1553C281.594 37.4862 280.814 36.5352 280.353 35.4225C279.893 34.3098 279.772 33.0855 280.007 31.9043C280.242 30.7231 280.821 29.638 281.672 28.7864C282.523 27.9348 283.608 27.3548 284.788 27.1199C285.969 26.8849 287.192 27.0055 288.304 27.4664C289.416 27.9273 290.367 28.7078 291.036 29.7092C291.704 30.7106 292.061 31.8879 292.061 33.0922C292.061 34.7072 291.42 36.256 290.279 37.398C289.137 38.5399 287.589 39.1815 285.975 39.1815Z" fill="white"/>
<path d="M191.086 34.0946C191.111 33.7605 191.125 33.4234 191.121 33.0864C191.114 32.2684 191.012 31.4539 190.816 30.6596C190.195 28.1283 188.666 25.9137 186.519 24.4375C184.372 22.9612 181.758 22.3263 179.174 22.6536C176.589 22.9809 174.215 24.2475 172.504 26.2124C170.792 28.1774 169.863 30.7033 169.892 33.3096C169.892 33.6495 169.916 33.9865 169.949 34.3178C170.074 35.5084 170.401 36.6688 170.918 37.7484C171.787 39.581 173.163 41.1263 174.882 42.2013C176.601 43.2764 178.592 43.8364 180.619 43.815C182.646 43.7936 184.625 43.1918 186.321 42.0807C188.017 40.9697 189.359 39.3959 190.19 37.5454L185.487 37.5943C184.656 38.5361 183.574 39.2226 182.368 39.5745C181.163 39.9263 179.882 39.9291 178.675 39.5824C177.467 39.2357 176.383 38.5538 175.547 37.6156C174.711 36.6775 174.158 35.5216 173.952 34.2818L191.086 34.0946ZM174.298 30.831C174.772 29.5818 175.611 28.5044 176.706 27.7398C177.801 26.9751 179.102 26.5586 180.437 26.5446C181.772 26.5306 183.081 26.9198 184.192 27.6613C185.303 28.4028 186.165 29.4623 186.665 30.7014L174.298 30.831Z" fill="white"/>
<path d="M214.768 34.0946C214.793 33.7605 214.807 33.4234 214.805 33.0864C214.797 31.6871 214.513 30.3031 213.969 29.0139C213.425 27.7247 212.632 26.5558 211.635 25.5743C210.638 24.5927 209.458 23.8179 208.161 23.2944C206.864 22.7709 205.476 22.5089 204.078 22.5236C202.679 22.5383 201.298 22.8294 200.012 23.3801C198.726 23.9308 197.562 24.7302 196.586 25.7325C195.61 26.7348 194.842 27.9201 194.325 29.2205C193.808 30.5208 193.553 31.9104 193.575 33.3096C193.575 33.6495 193.6 33.9865 193.633 34.3178C193.757 35.5083 194.084 36.6688 194.6 37.7485C195.469 39.581 196.845 41.126 198.564 42.201C200.284 43.276 202.274 43.8359 204.302 43.8146C206.329 43.7932 208.307 43.1915 210.004 42.0805C211.7 40.9695 213.043 39.3958 213.873 37.5454L209.169 37.5944C208.338 38.5366 207.257 39.2237 206.051 39.5759C204.845 39.9281 203.564 39.931 202.356 39.5843C201.149 39.2375 200.064 38.5553 199.228 37.6168C198.392 36.6783 197.84 35.5219 197.634 34.2818L214.768 34.0946ZM197.981 30.8311C198.455 29.5818 199.295 28.5045 200.39 27.7398C201.485 26.9751 202.785 26.5586 204.12 26.5447C205.456 26.5307 206.764 26.9198 207.875 27.6613C208.986 28.4028 209.848 29.4623 210.348 30.7014L197.981 30.8311Z" fill="white"/>
<path d="M268.643 18.3629C269.37 17.7717 270.3 17.4881 271.234 17.5723C272.048 17.545 272.859 17.6826 273.619 17.9769V14.0134C272.548 13.6743 271.43 13.5104 270.308 13.528C268.472 13.4585 266.684 14.1205 265.335 15.3687C264.67 16.0377 264.154 16.8393 263.82 17.7212C263.485 18.6031 263.34 19.5455 263.393 20.4873V22.5281H259.187V26.4916H263.393V43.8261H267.842V26.4901H273.623V22.5266H267.842V21.0043C267.796 20.533 267.842 20.0571 267.98 19.6038C268.117 19.1506 268.342 18.7289 268.643 18.3629Z" fill="white"/>
<path d="M167.393 28.495C167.394 32.0751 166.143 35.5426 163.855 38.2954C161.567 41.0483 158.388 42.9125 154.87 43.5644C151.352 44.2163 147.717 43.6147 144.596 41.8641C141.475 40.1135 139.065 37.3245 137.785 33.9813C136.505 30.6382 136.436 26.952 137.589 23.563C138.742 20.1739 141.045 17.296 144.098 15.4291C147.151 13.5621 150.761 12.8239 154.301 13.3427C157.842 13.8616 161.088 15.6047 163.478 18.2694L160.624 21.1239C158.975 19.2141 156.734 17.9124 154.258 17.4268C151.783 16.9412 149.217 17.2996 146.969 18.4448C144.721 19.5901 142.922 21.4561 141.859 23.7447C140.795 26.0333 140.529 28.6124 141.103 31.0701C141.677 33.5278 143.057 35.7222 145.024 37.3027C146.99 38.8833 149.429 39.7587 151.951 39.7892C154.474 39.8197 156.933 39.0036 158.937 37.4711C160.941 35.9386 162.374 33.7782 163.007 31.3352H153.1V27.229H167.343C167.376 27.6438 167.393 28.0658 167.393 28.495Z" fill="white"/>
<path d="M409.665 43.7686L400.001 34.0168V43.7686H395.553V13.181H400.001V31.2271L408.758 22.505H414.385L404.326 32.5693L415.365 43.7773L409.665 43.7686Z" fill="white"/>
<path d="M419.159 42.304C417.751 41.3681 416.669 40.0178 416.062 38.4398L419.905 36.7533C420.315 37.7283 421.004 38.5608 421.884 39.147C422.756 39.7027 423.772 39.9892 424.806 39.9708C425.74 40.001 426.668 39.8059 427.512 39.4019C427.843 39.2582 428.124 39.0193 428.32 38.7155C428.515 38.4116 428.616 38.0565 428.61 37.6952C428.618 37.3498 428.536 37.0083 428.371 36.7049C428.205 36.4015 427.963 36.147 427.669 35.9669C426.769 35.4414 425.789 35.07 424.767 34.868L422.375 34.279C420.895 33.9473 419.528 33.2299 418.415 32.1993C417.902 31.7184 417.497 31.134 417.226 30.4848C416.956 29.8355 416.826 29.1362 416.846 28.4331C416.827 27.3113 417.194 26.2172 417.885 25.3337C418.622 24.412 419.589 23.7015 420.689 23.2742C421.91 22.7839 423.216 22.5392 424.532 22.5541C426.233 22.518 427.916 22.9019 429.433 23.6717C430.795 24.3649 431.876 25.5083 432.492 26.9079L428.728 28.5555C428.349 27.7952 427.749 27.1673 427.008 26.754C426.266 26.3407 425.417 26.1614 424.571 26.2397C423.722 26.2103 422.882 26.414 422.14 26.8287C421.852 26.9694 421.608 27.1866 421.435 27.4566C421.262 27.7266 421.167 28.0391 421.16 28.3597C421.155 28.647 421.221 28.931 421.351 29.1872C421.481 29.4434 421.671 29.6641 421.905 29.8301C422.57 30.286 423.316 30.6119 424.102 30.7908L427.043 31.5368C428.701 31.8769 430.238 32.6557 431.493 33.7922C431.985 34.2743 432.372 34.8522 432.632 35.4901C432.891 36.1279 433.018 36.8122 433.003 37.5008C433.023 38.6943 432.643 39.8602 431.925 40.8133C431.156 41.8059 430.133 42.5718 428.964 43.0298C427.644 43.5654 426.231 43.8323 424.807 43.8148C422.814 43.9005 420.843 43.3732 419.159 42.304Z" fill="white"/>
<path d="M368.263 34.0946C368.287 33.7605 368.302 33.4234 368.299 33.0864C368.291 31.6871 368.007 30.3031 367.464 29.0139C366.92 27.7247 366.126 26.5558 365.13 25.5743C364.133 24.5927 362.952 23.8179 361.655 23.2944C360.358 22.7709 358.971 22.5089 357.572 22.5236C356.174 22.5383 354.792 22.8294 353.506 23.3801C352.221 23.9308 351.057 24.7302 350.081 25.7325C349.105 26.7348 348.336 27.9201 347.819 29.2205C347.303 30.5208 347.048 31.9104 347.07 33.3096C347.07 33.6495 347.094 33.9865 347.127 34.3178C347.251 35.5084 347.579 36.6689 348.096 37.7485C348.966 39.5806 350.341 41.1253 352.06 42.1999C353.779 43.2746 355.77 43.8344 357.797 43.813C359.824 43.7916 361.802 43.1901 363.498 42.0794C365.194 40.9688 366.537 39.3954 367.368 37.5454L362.664 37.5944C361.832 38.5366 360.751 39.2237 359.545 39.5759C358.339 39.9281 357.058 39.931 355.851 39.5843C354.643 39.2375 353.558 38.5553 352.723 37.6168C351.887 36.6783 351.334 35.5219 351.129 34.2818L368.263 34.0946ZM351.476 30.8311C351.95 29.5824 352.79 28.5057 353.885 27.7416C354.98 26.9774 356.28 26.5611 357.615 26.5471C358.95 26.5331 360.258 26.922 361.369 27.6631C362.48 28.4041 363.342 29.4629 363.843 30.7014L351.476 30.8311Z" fill="white"/>
<path d="M391.942 34.0946C391.967 33.7605 391.981 33.4234 391.977 33.0864C391.969 31.6871 391.685 30.3031 391.141 29.0139C390.597 27.7247 389.804 26.5558 388.807 25.5743C387.811 24.5927 386.63 23.8179 385.333 23.2944C384.036 22.7709 382.648 22.5089 381.25 22.5236C379.851 22.5383 378.47 22.8294 377.184 23.3801C375.898 23.9308 374.734 24.7302 373.758 25.7325C372.782 26.7348 372.014 27.9201 371.497 29.2205C370.98 30.5208 370.726 31.9104 370.747 33.3096C370.747 33.6495 370.772 33.9865 370.805 34.3178C370.929 35.5084 371.257 36.6688 371.774 37.7485C372.643 39.5806 374.019 41.1253 375.738 42.1999C377.457 43.2746 379.447 43.8344 381.474 43.813C383.501 43.7916 385.48 43.1901 387.176 42.0794C388.872 40.9688 390.215 39.3954 391.045 37.5454L386.342 37.5944C385.51 38.5366 384.429 39.2237 383.223 39.5759C382.017 39.9281 380.736 39.931 379.528 39.5843C378.321 39.2375 377.236 38.5553 376.4 37.6168C375.565 36.6783 375.012 35.5219 374.806 34.2818L391.942 34.0946ZM375.155 30.8311C375.629 29.5818 376.468 28.5045 377.563 27.7398C378.658 26.9751 379.959 26.5586 381.294 26.5447C382.629 26.5307 383.938 26.9198 385.049 27.6613C386.16 28.4028 387.022 29.4623 387.522 30.7014L375.155 30.8311Z" fill="white"/>
<path d="M344.569 28.4949C344.571 32.0746 343.319 35.5418 341.031 38.2942C338.744 41.0467 335.565 42.9106 332.048 43.5624C328.53 44.2142 324.895 43.6126 321.774 41.8622C318.654 40.1118 316.244 37.323 314.964 33.9802C313.684 30.6373 313.615 26.9516 314.768 23.5629C315.921 20.1742 318.224 17.2966 321.276 15.4298C324.329 13.563 327.939 12.8248 331.479 13.3436C335.018 13.8623 338.265 15.605 340.654 18.2693L337.8 21.1238C336.151 19.214 333.91 17.9124 331.435 17.4267C328.96 16.9411 326.393 17.2995 324.145 18.4448C321.898 19.59 320.098 21.456 319.035 23.7446C317.972 26.0332 317.706 28.6124 318.279 31.0701C318.853 33.5278 320.233 35.7222 322.2 37.3027C324.166 38.8832 326.606 39.7586 329.128 39.7892C331.65 39.8197 334.11 39.0035 336.114 37.471C338.118 35.9385 339.551 33.7782 340.184 31.3351H330.275V27.229H344.518C344.552 27.6438 344.569 28.0657 344.569 28.4949Z" fill="white"/>
</g>
<defs>
<clipPath id="clip0">
<rect width="433" height="57" fill="white"/>
</clipPath>
</defs>
</svg>
