<svg width="225" height="95" viewBox="0 0 225 95" fill="none" xmlns="http://www.w3.org/2000/svg">
<path d="M0 37.3214V7C0 3.13401 3.134 0 6.99999 0H79.7321V11.3095L0 37.3214Z" fill="white"/>
<path d="M0 71.25V50.8929L80.2976 23.75V44.6726L0 71.25Z" fill="#81FEFD"/>
<path d="M31.6667 72.381L0 84.256V95H39.0179L31.6667 72.381Z" fill="white"/>
<path d="M58.8095 93.3036L49.7619 65.0298L80.2976 55.4167V86.3036C80.2976 90.1696 77.1636 93.3036 73.2976 93.3036H58.8095Z" fill="white"/>
<path d="M99.8 49C99.6667 49 99.6 48.9333 99.6 48.8L99.64 21.32C99.64 21.2133 99.6933 21.16 99.8 21.16H104.28C104.387 21.16 104.44 21.2133 104.44 21.32L104.48 48.8C104.48 48.9333 104.427 49 104.32 49H99.8ZM111.798 49C111.665 49 111.598 48.9333 111.598 48.8L111.678 21.32C111.678 21.2133 111.732 21.16 111.838 21.16L119.318 21.12C120.785 21.0933 122.118 21.44 123.318 22.16C124.545 22.88 125.518 23.8533 126.238 25.08C126.958 26.28 127.318 27.6133 127.318 29.08V40.56C127.318 42.1067 126.945 43.52 126.198 44.8C125.452 46.0533 124.452 47.0533 123.198 47.8C121.945 48.5467 120.532 48.9333 118.958 48.96L111.798 49ZM116.478 44.08H118.958C119.945 44.08 120.772 43.7333 121.438 43.04C122.132 42.3467 122.478 41.52 122.478 40.56V29.04C122.478 28.1867 122.158 27.4533 121.518 26.84C120.905 26.2 120.172 25.8933 119.318 25.92L116.518 25.96L116.478 44.08ZM134.226 49C134.119 49 134.066 48.9333 134.066 48.8L134.106 21.32C134.106 21.2133 134.159 21.16 134.266 21.16H147.106C147.212 21.16 147.266 21.2267 147.266 21.36V25.84C147.266 25.9467 147.212 26 147.106 26H138.906V32.24H147.106C147.212 32.24 147.266 32.2933 147.266 32.4L147.306 36.92C147.306 37.0267 147.252 37.08 147.146 37.08H138.906V44.08H147.146C147.252 44.08 147.306 44.1467 147.306 44.28V48.84C147.306 48.9467 147.252 49 147.146 49H134.226ZM152.712 48.8L157.672 21.32C157.699 21.2133 157.765 21.16 157.872 21.16H163.672C163.779 21.16 163.845 21.2133 163.872 21.32L168.632 48.8C168.659 48.9333 168.605 49 168.472 49H164.032C163.925 49 163.859 48.9333 163.832 48.8L163.392 45.88H157.952L157.512 48.8C157.485 48.9333 157.419 49 157.312 49H152.872C152.765 49 152.712 48.9333 152.712 48.8ZM158.752 41.6H162.592L160.952 30.36L160.712 28.88L160.552 30.36L158.752 41.6ZM103.6 89C103.493 89 103.44 88.9333 103.44 88.8V66H98.24C98.1067 66 98.04 65.9333 98.04 65.8L98.08 61.32C98.08 61.2133 98.1333 61.16 98.24 61.16H113.44C113.573 61.16 113.64 61.2133 113.64 61.32V65.8C113.64 65.9333 113.587 66 113.48 66H108.24L108.28 88.8C108.28 88.9333 108.227 89 108.12 89H103.6ZM119.376 89C119.269 89 119.216 88.9333 119.216 88.8L119.256 61.32C119.256 61.2133 119.322 61.16 119.456 61.16H123.896C124.029 61.16 124.096 61.2133 124.096 61.32L124.056 72.2H130.056V61.32C130.056 61.2133 130.109 61.16 130.216 61.16H134.656C134.789 61.16 134.856 61.2133 134.856 61.32L134.936 88.8C134.936 88.9333 134.869 89 134.736 89H130.256C130.122 89 130.056 88.9333 130.056 88.8V77.04H124.056V88.8C124.056 88.9333 124.002 89 123.896 89H119.376ZM149.2 89.4C147.76 89.4 146.44 89.04 145.24 88.32C144.067 87.5733 143.12 86.6 142.4 85.4C141.68 84.1733 141.32 82.8267 141.32 81.36L141.36 68.68C141.36 67.2133 141.707 65.88 142.4 64.68C143.12 63.48 144.08 62.52 145.28 61.8C146.48 61.08 147.787 60.72 149.2 60.72C150.64 60.72 151.947 61.08 153.12 61.8C154.293 62.52 155.227 63.48 155.92 64.68C156.64 65.88 157 67.2133 157 68.68L157.04 81.36C157.04 82.8267 156.68 84.1733 155.96 85.4C155.267 86.6 154.32 87.5733 153.12 88.32C151.947 89.04 150.64 89.4 149.2 89.4ZM149.2 84.56C150 84.56 150.693 84.24 151.28 83.6C151.893 82.9333 152.2 82.1867 152.2 81.36L152.16 68.68C152.16 67.8 151.88 67.0533 151.32 66.44C150.76 65.8267 150.053 65.52 149.2 65.52C148.373 65.52 147.667 65.8267 147.08 66.44C146.493 67.0267 146.2 67.7733 146.2 68.68V81.36C146.2 82.24 146.493 83 147.08 83.64C147.667 84.2533 148.373 84.56 149.2 84.56ZM164.041 89C163.828 89 163.721 88.9067 163.721 88.72L163.681 61.48C163.681 61.2667 163.788 61.16 164.001 61.16H167.601L174.361 76.92L174.161 61.48C174.161 61.2667 174.281 61.16 174.521 61.16H178.481C178.641 61.16 178.721 61.2667 178.721 61.48L178.761 88.76C178.761 88.92 178.695 89 178.561 89H175.041L168.121 74.28L168.401 88.68C168.401 88.8933 168.281 89 168.041 89H164.041Z" fill="white"/>
<path d="M98.528 12C98.496 12 98.48 11.98 98.48 11.94L98.504 3.696C98.504 3.664 98.52 3.648 98.552 3.648H100.016C100.048 3.648 100.076 3.664 100.1 3.696L101.192 5.28L102.284 3.696C102.308 3.664 102.336 3.648 102.368 3.648H103.844C103.876 3.648 103.892 3.664 103.892 3.696L103.916 11.94C103.916 11.98 103.9 12 103.868 12H102.512C102.48 12 102.464 11.98 102.464 11.94L102.452 5.82L101.192 7.644L99.944 5.82L99.932 11.94C99.932 11.98 99.916 12 99.884 12H98.528ZM104.637 11.94L106.125 3.696C106.133 3.664 106.153 3.648 106.185 3.648H107.925C107.957 3.648 107.977 3.664 107.985 3.696L109.413 11.94C109.421 11.98 109.405 12 109.365 12H108.033C108.001 12 107.981 11.98 107.973 11.94L107.841 11.064H106.209L106.077 11.94C106.069 11.98 106.049 12 106.017 12H104.685C104.653 12 104.637 11.98 104.637 11.94ZM106.449 9.78H107.601L107.109 6.408L107.037 5.964L106.989 6.408L106.449 9.78ZM110.912 12C110.88 12 110.864 11.98 110.864 11.94V5.1H109.304C109.264 5.1 109.244 5.08 109.244 5.04L109.256 3.696C109.256 3.664 109.272 3.648 109.304 3.648H113.864C113.904 3.648 113.924 3.664 113.924 3.696V5.04C113.924 5.08 113.908 5.1 113.876 5.1H112.304L112.316 11.94C112.316 11.98 112.3 12 112.268 12H110.912ZM114.685 12C114.653 12 114.637 11.98 114.637 11.94L114.649 3.696C114.649 3.664 114.669 3.648 114.709 3.648H116.041C116.081 3.648 116.101 3.664 116.101 3.696L116.089 6.96H117.889V3.696C117.889 3.664 117.905 3.648 117.937 3.648H119.269C119.309 3.648 119.329 3.664 119.329 3.696L119.353 11.94C119.353 11.98 119.333 12 119.293 12H117.949C117.909 12 117.889 11.98 117.889 11.94V8.412H116.089V11.94C116.089 11.98 116.073 12 116.041 12H114.685ZM122.492 12.12C122.06 12.12 121.664 12.012 121.304 11.796C120.952 11.572 120.668 11.28 120.452 10.92C120.244 10.552 120.14 10.148 120.14 9.708V9.156C120.14 9.116 120.16 9.096 120.2 9.096H121.544C121.576 9.096 121.592 9.116 121.592 9.156V9.708C121.592 9.972 121.68 10.2 121.856 10.392C122.032 10.576 122.244 10.668 122.492 10.668C122.74 10.668 122.952 10.572 123.128 10.38C123.304 10.188 123.392 9.964 123.392 9.708C123.392 9.412 123.2 9.156 122.816 8.94C122.688 8.868 122.488 8.756 122.216 8.604C121.944 8.452 121.688 8.308 121.448 8.172C121.008 7.916 120.68 7.596 120.464 7.212C120.256 6.82 120.152 6.38 120.152 5.892C120.152 5.444 120.26 5.044 120.476 4.692C120.692 4.332 120.976 4.048 121.328 3.84C121.688 3.632 122.076 3.528 122.492 3.528C122.916 3.528 123.304 3.636 123.656 3.852C124.016 4.06 124.3 4.344 124.508 4.704C124.724 5.056 124.832 5.452 124.832 5.892V6.876C124.832 6.908 124.816 6.924 124.784 6.924H123.44C123.408 6.924 123.392 6.908 123.392 6.876L123.38 5.892C123.38 5.612 123.292 5.384 123.116 5.208C122.94 5.032 122.732 4.944 122.492 4.944C122.244 4.944 122.032 5.04 121.856 5.232C121.68 5.416 121.592 5.636 121.592 5.892C121.592 6.156 121.648 6.376 121.76 6.552C121.872 6.728 122.076 6.896 122.372 7.056C122.412 7.08 122.488 7.124 122.6 7.188C122.72 7.244 122.848 7.312 122.984 7.392C123.12 7.464 123.24 7.528 123.344 7.584C123.456 7.64 123.524 7.676 123.548 7.692C123.948 7.916 124.264 8.192 124.496 8.52C124.728 8.84 124.844 9.236 124.844 9.708C124.844 10.164 124.736 10.576 124.52 10.944C124.312 11.304 124.028 11.592 123.668 11.808C123.316 12.016 122.924 12.12 122.492 12.12ZM127.808 12C127.744 12 127.712 11.972 127.712 11.916L127.7 3.744C127.7 3.68 127.732 3.648 127.796 3.648H128.876L130.904 8.376L130.844 3.744C130.844 3.68 130.88 3.648 130.952 3.648H132.14C132.188 3.648 132.212 3.68 132.212 3.744L132.224 11.928C132.224 11.976 132.204 12 132.164 12H131.108L129.032 7.584L129.116 11.904C129.116 11.968 129.08 12 129.008 12H127.808ZM136.488 12C136.456 12 136.44 11.98 136.44 11.94V5.1H134.88C134.84 5.1 134.82 5.08 134.82 5.04L134.832 3.696C134.832 3.664 134.848 3.648 134.88 3.648H139.44C139.48 3.648 139.5 3.664 139.5 3.696V5.04C139.5 5.08 139.484 5.1 139.452 5.1H137.88L137.892 11.94C137.892 11.98 137.876 12 137.844 12H136.488ZM140.26 12C140.228 12 140.212 11.98 140.212 11.94L140.224 3.696C140.224 3.664 140.24 3.648 140.272 3.648H144.124C144.156 3.648 144.172 3.668 144.172 3.708V5.052C144.172 5.084 144.156 5.1 144.124 5.1H141.664V6.972H144.124C144.156 6.972 144.172 6.988 144.172 7.02L144.184 8.376C144.184 8.408 144.168 8.424 144.136 8.424H141.664V10.524H144.136C144.168 10.524 144.184 10.544 144.184 10.584V11.952C144.184 11.984 144.168 12 144.136 12H140.26ZM147.392 12.12C146.952 12.12 146.552 12.012 146.192 11.796C145.84 11.572 145.56 11.276 145.352 10.908C145.144 10.54 145.04 10.128 145.04 9.672L145.052 5.928C145.052 5.488 145.152 5.088 145.352 4.728C145.56 4.36 145.84 4.068 146.192 3.852C146.552 3.628 146.952 3.516 147.392 3.516C147.832 3.516 148.228 3.624 148.58 3.84C148.932 4.056 149.212 4.348 149.42 4.716C149.628 5.076 149.732 5.48 149.732 5.928V6.48C149.732 6.512 149.716 6.528 149.684 6.528H148.34C148.308 6.528 148.292 6.512 148.292 6.48V5.928C148.292 5.664 148.204 5.436 148.028 5.244C147.86 5.052 147.648 4.956 147.392 4.956C147.104 4.956 146.884 5.056 146.732 5.256C146.58 5.448 146.504 5.672 146.504 5.928V9.672C146.504 9.968 146.588 10.208 146.756 10.392C146.932 10.576 147.144 10.668 147.392 10.668C147.648 10.668 147.86 10.568 148.028 10.368C148.204 10.16 148.292 9.928 148.292 9.672V9.12C148.292 9.088 148.308 9.072 148.34 9.072H149.696C149.728 9.072 149.744 9.088 149.744 9.12V9.672C149.744 10.128 149.636 10.54 149.42 10.908C149.212 11.276 148.932 11.572 148.58 11.796C148.228 12.012 147.832 12.12 147.392 12.12ZM150.789 12C150.757 12 150.741 11.98 150.741 11.94L150.753 3.696C150.753 3.664 150.773 3.648 150.813 3.648H152.145C152.185 3.648 152.205 3.664 152.205 3.696L152.193 6.96H153.993V3.696C153.993 3.664 154.009 3.648 154.041 3.648H155.373C155.413 3.648 155.433 3.664 155.433 3.696L155.457 11.94C155.457 11.98 155.437 12 155.397 12H154.053C154.013 12 153.993 11.98 153.993 11.94V8.412H152.193V11.94C152.193 11.98 152.177 12 152.145 12H150.789ZM160.666 12.12C160.226 12.12 159.826 12.012 159.466 11.796C159.114 11.572 158.834 11.276 158.626 10.908C158.418 10.54 158.314 10.128 158.314 9.672L158.326 5.928C158.326 5.488 158.426 5.088 158.626 4.728C158.834 4.36 159.114 4.068 159.466 3.852C159.826 3.628 160.226 3.516 160.666 3.516C161.106 3.516 161.502 3.624 161.854 3.84C162.206 4.056 162.486 4.348 162.694 4.716C162.902 5.076 163.006 5.48 163.006 5.928V6.48C163.006 6.512 162.99 6.528 162.958 6.528H161.614C161.582 6.528 161.566 6.512 161.566 6.48V5.928C161.566 5.664 161.478 5.436 161.302 5.244C161.134 5.052 160.922 4.956 160.666 4.956C160.378 4.956 160.158 5.056 160.006 5.256C159.854 5.448 159.778 5.672 159.778 5.928V9.672C159.778 9.968 159.862 10.208 160.03 10.392C160.206 10.576 160.418 10.668 160.666 10.668C160.922 10.668 161.134 10.568 161.302 10.368C161.478 10.16 161.566 9.928 161.566 9.672V9.12C161.566 9.088 161.582 9.072 161.614 9.072H162.97C163.002 9.072 163.018 9.088 163.018 9.12V9.672C163.018 10.128 162.91 10.54 162.694 10.908C162.486 11.276 162.206 11.572 161.854 11.796C161.502 12.012 161.106 12.12 160.666 12.12ZM164.063 12C164.031 12 164.015 11.98 164.015 11.94L164.027 3.708C164.027 3.668 164.047 3.648 164.087 3.648H165.419C165.459 3.648 165.479 3.668 165.479 3.708L165.467 10.524H167.939C167.979 10.524 167.999 10.544 167.999 10.584V11.94C167.999 11.98 167.979 12 167.939 12H164.063ZM170.879 12.12C170.455 12.12 170.063 12.012 169.703 11.796C169.343 11.572 169.055 11.276 168.839 10.908C168.631 10.54 168.527 10.136 168.527 9.696L168.551 3.696C168.551 3.664 168.567 3.648 168.599 3.648H169.943C169.975 3.648 169.991 3.664 169.991 3.696V9.696C169.991 9.968 170.075 10.2 170.243 10.392C170.419 10.576 170.631 10.668 170.879 10.668C171.135 10.668 171.347 10.576 171.515 10.392C171.691 10.2 171.779 9.968 171.779 9.696V3.696C171.779 3.664 171.795 3.648 171.827 3.648H173.171C173.203 3.648 173.219 3.664 173.219 3.696L173.243 9.696C173.243 10.144 173.135 10.552 172.919 10.92C172.711 11.288 172.427 11.58 172.067 11.796C171.715 12.012 171.319 12.12 170.879 12.12ZM174.358 12C174.326 12 174.31 11.98 174.31 11.94L174.334 3.696C174.334 3.664 174.35 3.648 174.382 3.648H176.686C177.142 3.648 177.55 3.76 177.91 3.984C178.27 4.2 178.554 4.488 178.762 4.848C178.97 5.208 179.074 5.6 179.074 6.024C179.074 6.368 178.994 6.688 178.834 6.984C178.682 7.28 178.498 7.52 178.282 7.704C178.514 7.936 178.694 8.204 178.822 8.508C178.95 8.812 179.014 9.132 179.014 9.468C179.014 9.932 178.902 10.356 178.678 10.74C178.454 11.124 178.15 11.432 177.766 11.664C177.39 11.888 176.97 12 176.506 12H174.358ZM175.774 6.96H176.686C176.966 6.96 177.19 6.864 177.358 6.672C177.534 6.472 177.622 6.256 177.622 6.024C177.622 5.768 177.53 5.548 177.346 5.364C177.162 5.172 176.942 5.076 176.686 5.076H175.774V6.96ZM175.762 10.536H176.506C176.794 10.536 177.042 10.432 177.25 10.224C177.458 10.008 177.562 9.756 177.562 9.468C177.562 9.18 177.458 8.932 177.25 8.724C177.042 8.516 176.794 8.412 176.506 8.412H175.774L175.762 10.536ZM181.958 12C181.918 12 181.898 11.98 181.898 11.94L181.922 3.696C181.922 3.664 181.938 3.648 181.97 3.648H184.274C185.01 3.648 185.59 3.872 186.014 4.32C186.446 4.768 186.662 5.376 186.662 6.144C186.662 6.712 186.55 7.204 186.326 7.62C186.102 8.036 185.81 8.356 185.45 8.58C185.09 8.804 184.698 8.916 184.274 8.916H183.362V11.94C183.362 11.98 183.342 12 183.302 12H181.958ZM183.362 7.464H184.274C184.53 7.464 184.75 7.344 184.934 7.104C185.126 6.856 185.222 6.536 185.222 6.144C185.222 5.832 185.138 5.576 184.97 5.376C184.802 5.176 184.57 5.076 184.274 5.076L183.362 5.088V7.464ZM187.55 12C187.518 12 187.502 11.98 187.502 11.94L187.526 3.696C187.526 3.664 187.542 3.648 187.574 3.648H189.998C190.43 3.648 190.826 3.756 191.186 3.972C191.554 4.18 191.846 4.464 192.062 4.824C192.278 5.176 192.386 5.576 192.386 6.024C192.386 6.32 192.342 6.588 192.254 6.828C192.166 7.06 192.062 7.26 191.942 7.428C191.822 7.588 191.714 7.708 191.618 7.788C192.05 8.268 192.266 8.832 192.266 9.48L192.278 11.94C192.278 11.98 192.258 12 192.218 12H190.862C190.83 12 190.814 11.988 190.814 11.964V9.48C190.814 9.192 190.71 8.944 190.502 8.736C190.302 8.52 190.054 8.412 189.758 8.412H188.966L188.954 11.94C188.954 11.98 188.938 12 188.906 12H187.55ZM188.966 6.972H189.998C190.246 6.972 190.466 6.88 190.658 6.696C190.85 6.512 190.946 6.288 190.946 6.024C190.946 5.768 190.85 5.548 190.658 5.364C190.474 5.18 190.254 5.088 189.998 5.088H188.966V6.972ZM193.459 12C193.427 12 193.411 11.98 193.411 11.94L193.423 3.696C193.423 3.664 193.439 3.648 193.471 3.648H197.323C197.355 3.648 197.371 3.668 197.371 3.708V5.052C197.371 5.084 197.355 5.1 197.323 5.1H194.863V6.972H197.323C197.355 6.972 197.371 6.988 197.371 7.02L197.383 8.376C197.383 8.408 197.367 8.424 197.335 8.424H194.863V10.524H197.335C197.367 10.524 197.383 10.544 197.383 10.584V11.952C197.383 11.984 197.367 12 197.335 12H193.459ZM200.54 12.12C200.108 12.12 199.712 12.012 199.352 11.796C199 11.572 198.716 11.28 198.5 10.92C198.292 10.552 198.188 10.148 198.188 9.708V9.156C198.188 9.116 198.208 9.096 198.248 9.096H199.592C199.624 9.096 199.64 9.116 199.64 9.156V9.708C199.64 9.972 199.728 10.2 199.904 10.392C200.08 10.576 200.292 10.668 200.54 10.668C200.788 10.668 201 10.572 201.176 10.38C201.352 10.188 201.44 9.964 201.44 9.708C201.44 9.412 201.248 9.156 200.864 8.94C200.736 8.868 200.536 8.756 200.264 8.604C199.992 8.452 199.736 8.308 199.496 8.172C199.056 7.916 198.728 7.596 198.512 7.212C198.304 6.82 198.2 6.38 198.2 5.892C198.2 5.444 198.308 5.044 198.524 4.692C198.74 4.332 199.024 4.048 199.376 3.84C199.736 3.632 200.124 3.528 200.54 3.528C200.964 3.528 201.352 3.636 201.704 3.852C202.064 4.06 202.348 4.344 202.556 4.704C202.772 5.056 202.88 5.452 202.88 5.892V6.876C202.88 6.908 202.864 6.924 202.832 6.924H201.488C201.456 6.924 201.44 6.908 201.44 6.876L201.428 5.892C201.428 5.612 201.34 5.384 201.164 5.208C200.988 5.032 200.78 4.944 200.54 4.944C200.292 4.944 200.08 5.04 199.904 5.232C199.728 5.416 199.64 5.636 199.64 5.892C199.64 6.156 199.696 6.376 199.808 6.552C199.92 6.728 200.124 6.896 200.42 7.056C200.46 7.08 200.536 7.124 200.648 7.188C200.768 7.244 200.896 7.312 201.032 7.392C201.168 7.464 201.288 7.528 201.392 7.584C201.504 7.64 201.572 7.676 201.596 7.692C201.996 7.916 202.312 8.192 202.544 8.52C202.776 8.84 202.892 9.236 202.892 9.708C202.892 10.164 202.784 10.576 202.568 10.944C202.36 11.304 202.076 11.592 201.716 11.808C201.364 12.016 200.972 12.12 200.54 12.12ZM203.895 12C203.863 12 203.847 11.98 203.847 11.94L203.859 3.696C203.859 3.664 203.875 3.648 203.907 3.648H207.759C207.791 3.648 207.807 3.668 207.807 3.708V5.052C207.807 5.084 207.791 5.1 207.759 5.1H205.299V6.972H207.759C207.791 6.972 207.807 6.988 207.807 7.02L207.819 8.376C207.819 8.408 207.803 8.424 207.771 8.424H205.299V10.524H207.771C207.803 10.524 207.819 10.544 207.819 10.584V11.952C207.819 11.984 207.803 12 207.771 12H203.895ZM209.114 12C209.05 12 209.018 11.972 209.018 11.916L209.006 3.744C209.006 3.68 209.038 3.648 209.102 3.648H210.182L212.21 8.376L212.15 3.744C212.15 3.68 212.186 3.648 212.258 3.648H213.446C213.494 3.648 213.518 3.68 213.518 3.744L213.53 11.928C213.53 11.976 213.51 12 213.47 12H212.414L210.338 7.584L210.422 11.904C210.422 11.968 210.386 12 210.314 12H209.114ZM215.892 12C215.86 12 215.844 11.98 215.844 11.94V5.1H214.284C214.244 5.1 214.224 5.08 214.224 5.04L214.236 3.696C214.236 3.664 214.252 3.648 214.284 3.648H218.844C218.884 3.648 218.904 3.664 218.904 3.696V5.04C218.904 5.08 218.888 5.1 218.856 5.1H217.284L217.296 11.94C217.296 11.98 217.28 12 217.248 12H215.892ZM221.598 12.12C221.166 12.12 220.77 12.012 220.41 11.796C220.058 11.572 219.774 11.28 219.558 10.92C219.35 10.552 219.246 10.148 219.246 9.708V9.156C219.246 9.116 219.266 9.096 219.306 9.096H220.65C220.682 9.096 220.698 9.116 220.698 9.156V9.708C220.698 9.972 220.786 10.2 220.962 10.392C221.138 10.576 221.35 10.668 221.598 10.668C221.846 10.668 222.058 10.572 222.234 10.38C222.41 10.188 222.498 9.964 222.498 9.708C222.498 9.412 222.306 9.156 221.922 8.94C221.794 8.868 221.594 8.756 221.322 8.604C221.05 8.452 220.794 8.308 220.554 8.172C220.114 7.916 219.786 7.596 219.57 7.212C219.362 6.82 219.258 6.38 219.258 5.892C219.258 5.444 219.366 5.044 219.582 4.692C219.798 4.332 220.082 4.048 220.434 3.84C220.794 3.632 221.182 3.528 221.598 3.528C222.022 3.528 222.41 3.636 222.762 3.852C223.122 4.06 223.406 4.344 223.614 4.704C223.83 5.056 223.938 5.452 223.938 5.892V6.876C223.938 6.908 223.922 6.924 223.89 6.924H222.546C222.514 6.924 222.498 6.908 222.498 6.876L222.486 5.892C222.486 5.612 222.398 5.384 222.222 5.208C222.046 5.032 221.838 4.944 221.598 4.944C221.35 4.944 221.138 5.04 220.962 5.232C220.786 5.416 220.698 5.636 220.698 5.892C220.698 6.156 220.754 6.376 220.866 6.552C220.978 6.728 221.182 6.896 221.478 7.056C221.518 7.08 221.594 7.124 221.706 7.188C221.826 7.244 221.954 7.312 222.09 7.392C222.226 7.464 222.346 7.528 222.45 7.584C222.562 7.64 222.63 7.676 222.654 7.692C223.054 7.916 223.37 8.192 223.602 8.52C223.834 8.84 223.95 9.236 223.95 9.708C223.95 10.164 223.842 10.576 223.626 10.944C223.418 11.304 223.134 11.592 222.774 11.808C222.422 12.016 222.03 12.12 221.598 12.12Z" fill="#81FEFD"/>
</svg>
